PathFileType	3	(X/Y/Z)	D:\minhoCalibration\240510\subject1_KPNP\preferred\preferred14.trc
DataRate	CameraRate	NumFrames	NumMarkers	Units	OrigDataRate	OrigDataStartFrame	OrigNumFrames
200.0	200.0	12	10	mm	200.0	507	208	
Frame#	Time	Left_Ankle_Outer1			Left_Ankle_Inner1			Left_Knee_Outer1			Left_Knee_Inner1			Left_Wrist1			Right_Wrist1			Right_Knee_Inner1			Right_Knee_Outer1			Right_Ankle_Inner1			Right_Ankle_Outer1			
		X1	Y1	Z1	X2	Y2	Z2	X3	Y3	Z3	X4	Y4	Z4	X5	Y5	Z5	X6	Y6	Z6	X7	Y7	Z7	X8	Y8	Z8	X9	Y9	Z9	X10	Y10	Z10	
507	2.525	-531.25043	97.742706	-576.82147	-573.11694	108.98119	-538.21747	-382.14597	521.8905	-473.3067	-486.94681	504.53674	-443.26547	-351.85751	983.96375	-606.91754	-684.25201	1046.9561	-493.50873	-473.03159	683.9129	-219.89104	-581.34271	719.22388	-192.1788	-637.15125	266.37173	-257.33969	-728.45197	278.25052	-183.61267
508	2.53	-531.14142	97.478279	-577.13574	-573.39972	108.55025	-538.17755	-382.32645	521.24823	-472.34756	-487.08417	504.16022	-442.96313	-351.52704	983.53784	-606.32635	-685.0697	1044.1393	-495.34329	-478.11157	674.12079	-226.86751	-586.65131	709.44434	-199.54294	-645.14313	259.73016	-280.18695	-737.44244	269.74216	-209.30754
509	2.535	-531.23352	97.187851	-577.08875	-573.58936	108.44501	-538.46234	-382.34653	520.6731	-471.44366	-486.86115	503.8569	-442.83255	-351.10464	983.21844	-605.80182	-685.90564	1041.3608	-497.25742	-483.30118	664.58929	-234.22911	-592.4881	699.97906	-206.3455	-650.32666	254.66875	-304.64508	-745.6123	261.50543	-236.36102
510	2.54	-531.26483	96.907051	-577.01007	-573.61938	107.92056	-538.1217	-382.3233	520.28864	-470.69669	-486.52567	503.65729	-442.09473	-350.79471	982.92963	-605.22888	-686.80225	1038.6609	-499.20673	-488.65186	655.2478	-241.93596	-597.90588	690.10248	-214.42503	-657.19159	248.11607	-330.12878	-754.27094	254.88332	-261.03915
511	2.545	-531.22028	96.657288	-577.0473	-574.052	107.71022	-538.97546	-381.92758	520.01477	-469.92938	-486.90765	503.43292	-441.55951	-350.50571	982.71466	-604.55383	-687.77106	1035.891	-501.48917	-494.09	646.16925	-249.77658	-603.67743	681.36426	-221.84047	-663.85175	243.39748	-353.17029	-761.58337	248.76118	-287.00351
512	2.55	-531.13721	96.501762	-577.07941	-573.99554	107.724	-538.95392	-381.63513	519.80469	-469.33173	-486.43405	503.1777	-441.03595	-350.34595	982.54974	-603.80438	-688.73889	1033.2394	-503.85791	-499.75119	637.44904	-257.83142	-609.96039	671.50208	-230.79108	-669.91254	238.92186	-375.76654	-768.71594	243.50113	-311.71002
513	2.555	-530.95898	96.392509	-577.19684	-574.0481	107.63934	-539.24615	-381.38248	519.60339	-468.79529	-486.20938	503.23666	-441.04376	-350.07312	982.48401	-603.08405	-689.66656	1030.5577	-506.3588	-505.30505	629.24207	-265.79086	-616.20862	662.70825	-239.47269	-674.38446	235.23399	-400.19357	-775.34839	238.28419	-337.15289
514	2.56	-530.89551	96.322006	-577.21875	-573.76984	107.64086	-539.12494	-381.01685	519.46332	-468.36148	-486.05197	503.13449	-440.87933	-349.92908	982.4436	-602.25854	-690.75519	1028	-509.10568	-511.45416	621.4986	-274.11917	-622.75909	654.15271	-248.49107	-680.66534	230.70428	-421.29562	-781.53809	234.10539	-362.17181
515	2.565	-530.66748	96.329498	-577.32684	-573.66748	107.64934	-539.12158	-380.8894	519.24213	-468.09717	-486.03683	502.91736	-440.72485	-349.77008	982.4314	-601.40704	-691.2453	1025.3958	-512.57727	-517.48035	613.89288	-282.38428	-629.50403	645.93964	-258.04871	-684.00848	227.90701	-445.46066	-787.12701	230.41597	-386.63251
516	2.57	-530.5282	96.269463	-577.51337	-573.53333	107.61253	-539.3139	-380.57172	519.10083	-467.94009	-485.60434	503.27396	-440.43933	-349.72525	982.54266	-600.41431	-691.45581	1022.8536	-516.78381	-523.93488	606.59912	-290.82571	-636.40753	638.05066	-267.89624	-687.89624	225.745	-466.78809	-791.87152	227.23396	-410.905
517	2.575	-530.44781	96.249626	-577.63196	-573.01349	107.78269	-538.93262	-380.25308	519.04407	-467.90335	-485.49841	502.92749	-440.52283	-349.67542	982.76031	-599.42395	-692.96985	1020.5104	-518.50836	-530.07849	599.76648	-298.5231	-643.43878	630.44366	-278.16452	-691.44897	223.9684	-487.67279	-796.47723	224.1554	-434.50027
518	2.58	-530.36786	96.128937	-577.78186	-572.82245	107.42886	-538.84637	-379.8924	519.02094	-467.91605	-484.44873	503.00742	-440.80905	-349.70859	982.97986	-598.33472	-693.78186	1018.3458	-521.64008	-536.83972	593.49219	-306.03101	-650.69897	623.16687	-288.5755	-694.63654	221.61272	-509.56744	-800.80255	221.49802	-457.97534
